<svg xmlns="http://www.w3.org/2000/svg" viewBox="0 0 600 600" preserveAspectRatio="xMidYMid slice">
  <defs>
    <linearGradient id="qSky" x1="0" y1="0" x2="0" y2="1">
      <stop offset="0%" stop-color="#ffd9a8"/>
      <stop offset="35%" stop-color="#ffb084"/>
      <stop offset="100%" stop-color="#ff6b6b"/>
    </linearGradient>
    <linearGradient id="qSea" x1="0" y1="0" x2="0" y2="1">
      <stop offset="0%" stop-color="#3b6db5"/>
      <stop offset="100%" stop-color="#0a1f3d"/>
    </linearGradient>
    <linearGradient id="qBuildA" x1="0" y1="0" x2="0" y2="1">
      <stop offset="0%" stop-color="#553344"/>
      <stop offset="100%" stop-color="#1a0a14"/>
    </linearGradient>
    <linearGradient id="qBuildB" x1="0" y1="0" x2="0" y2="1">
      <stop offset="0%" stop-color="#774455"/>
      <stop offset="100%" stop-color="#2a1020"/>
    </linearGradient>
    <radialGradient id="qSun" cx="0.5" cy="0.5" r="0.5">
      <stop offset="0%" stop-color="#fff5d9"/>
      <stop offset="60%" stop-color="#ffd566"/>
      <stop offset="100%" stop-color="#ff8844"/>
    </radialGradient>
  </defs>

  <rect width="600" height="380" fill="url(#qSky)"/>
  <circle cx="430" cy="210" r="60" fill="url(#qSun)"/>
  <circle cx="430" cy="210" r="86" fill="rgba(255,213,102,0.18)"/>

  <g opacity="0.5" fill="rgba(255,255,255,0.6)">
    <ellipse cx="120" cy="120" rx="60" ry="10"/>
    <ellipse cx="180" cy="130" rx="40" ry="6"/>
    <ellipse cx="500" cy="100" rx="50" ry="8"/>
  </g>

  <g fill="#1a0a14">
    <rect x="40" y="280" width="44" height="100"/>
    <rect x="84" y="240" width="32" height="140"/>
    <rect x="116" y="270" width="38" height="110"/>
    <rect x="160" y="200" width="50" height="180"/>
    <rect x="210" y="250" width="34" height="130"/>
    <polygon points="244,250 280,180 280,380 244,380"/>
    <rect x="280" y="220" width="42" height="160"/>
    <rect x="322" y="260" width="36" height="120"/>
    <rect x="358" y="180" width="46" height="200"/>
    <polygon points="404,200 440,140 440,380 404,380"/>
    <rect x="440" y="240" width="36" height="140"/>
    <rect x="476" y="280" width="44" height="100"/>
    <rect x="520" y="260" width="40" height="120"/>
  </g>

  <g fill="rgba(255,213,102,0.85)">
    <rect x="170" y="220" width="4" height="6"/>
    <rect x="180" y="220" width="4" height="6"/>
    <rect x="190" y="220" width="4" height="6"/>
    <rect x="170" y="240" width="4" height="6"/>
    <rect x="180" y="240" width="4" height="6"/>
    <rect x="170" y="260" width="4" height="6"/>
    <rect x="190" y="260" width="4" height="6"/>

    <rect x="290" y="240" width="4" height="6"/>
    <rect x="300" y="240" width="4" height="6"/>
    <rect x="310" y="240" width="4" height="6"/>
    <rect x="290" y="260" width="4" height="6"/>
    <rect x="310" y="260" width="4" height="6"/>
    <rect x="290" y="280" width="4" height="6"/>

    <rect x="368" y="200" width="4" height="6"/>
    <rect x="378" y="200" width="4" height="6"/>
    <rect x="388" y="200" width="4" height="6"/>
    <rect x="368" y="220" width="4" height="6"/>
    <rect x="388" y="220" width="4" height="6"/>
    <rect x="368" y="240" width="4" height="6"/>
    <rect x="378" y="240" width="4" height="6"/>
  </g>

  <rect x="0" y="380" width="600" height="160" fill="url(#qSea)"/>

  <g fill="rgba(255,213,102,0.5)">
    <ellipse cx="430" cy="385" rx="80" ry="3"/>
    <ellipse cx="430" cy="400" rx="60" ry="2.5"/>
    <ellipse cx="430" cy="415" rx="40" ry="2"/>
    <ellipse cx="430" cy="430" rx="24" ry="1.5"/>
  </g>

  <g stroke="rgba(255,255,255,0.25)" stroke-width="1.5" fill="none">
    <path d="M0,420 Q150,410 300,420 T600,420"/>
    <path d="M0,450 Q150,440 300,450 T600,450"/>
    <path d="M0,480 Q150,470 300,480 T600,480"/>
    <path d="M0,510 Q150,500 300,510 T600,510"/>
  </g>

  <g fill="#fff" opacity="0.85">
    <path d="M120,460 L130,440 L130,500 Z"/>
    <rect x="118" y="500" width="14" height="6" rx="2"/>
    <path d="M180,470 L196,448 L196,510 Z"/>
    <rect x="178" y="510" width="20" height="7" rx="2"/>
    <path d="M380,470 L394,452 L394,508 Z"/>
    <rect x="378" y="508" width="18" height="6" rx="2"/>
  </g>

  <rect x="0" y="540" width="600" height="60" fill="#fff"/>
  <text x="300" y="572" text-anchor="middle" font-family="Arial,sans-serif" font-size="20" font-weight="bold" fill="#cc0000">QINGDAO</text>
  <text x="300" y="590" text-anchor="middle" font-family="Arial,sans-serif" font-size="11" fill="#666666" letter-spacing="2">SHANDONG · CHINA</text>
</svg>
