<svg xmlns="http://www.w3.org/2000/svg" viewBox="0 0 600 600" preserveAspectRatio="xMidYMid slice">
  <defs>
    <linearGradient id="cBg" x1="0" y1="0" x2="0" y2="1">
      <stop offset="0%" stop-color="#1a1a2e"/>
      <stop offset="100%" stop-color="#330a14"/>
    </linearGradient>
    <linearGradient id="server" x1="0" y1="0" x2="0" y2="1">
      <stop offset="0%" stop-color="#2a2a44"/>
      <stop offset="100%" stop-color="#1a1a2a"/>
    </linearGradient>
    <linearGradient id="serverFront" x1="0" y1="0" x2="0" y2="1">
      <stop offset="0%" stop-color="#3a3a55"/>
      <stop offset="100%" stop-color="#22223a"/>
    </linearGradient>
    <radialGradient id="cglow" cx="0.5" cy="0.5" r="0.5">
      <stop offset="0%" stop-color="rgba(255,80,80,0.4)"/>
      <stop offset="100%" stop-color="rgba(255,80,80,0)"/>
    </radialGradient>
  </defs>

  <rect width="600" height="600" fill="url(#cBg)"/>
  <rect width="600" height="600" fill="url(#cglow)"/>

  <g stroke="rgba(255,255,255,0.05)" stroke-width="1" fill="none">
    <path d="M0,150 L600,150 M0,300 L600,300 M0,450 L600,450"/>
    <path d="M150,0 L150,600 M300,0 L300,600 M450,0 L450,600"/>
  </g>

  <g transform="translate(150,140)">
    <rect x="0" y="0" width="300" height="320" rx="14" fill="url(#server)" stroke="rgba(255,255,255,0.06)"/>
    <rect x="0" y="0" width="300" height="40" rx="14" fill="url(#serverFront)"/>
    <text x="20" y="26" font-family="Consolas,monospace" font-size="14" fill="rgba(255,255,255,0.7)">RACK-01</text>
    <circle cx="270" cy="20" r="4" fill="#cc0000"/>
    <circle cx="284" cy="20" r="4" fill="#22aa22"/>

    <g transform="translate(20,60)">
      <rect width="260" height="40" rx="6" fill="#1a1a2a"/>
      <rect x="6" y="6" width="6" height="28" rx="2" fill="#cc0000"/>
      <rect x="20" y="14" width="160" height="4" rx="2" fill="rgba(255,255,255,0.2)"/>
      <rect x="20" y="22" width="120" height="4" rx="2" fill="rgba(255,255,255,0.12)"/>
      <circle cx="230" cy="20" r="3" fill="#22aa22"/>
      <circle cx="244" cy="20" r="3" fill="#22aa22"/>
    </g>
    <g transform="translate(20,110)">
      <rect width="260" height="40" rx="6" fill="#1a1a2a"/>
      <rect x="6" y="6" width="6" height="28" rx="2" fill="#cc0000"/>
      <rect x="20" y="14" width="180" height="4" rx="2" fill="rgba(255,255,255,0.2)"/>
      <rect x="20" y="22" width="100" height="4" rx="2" fill="rgba(255,255,255,0.12)"/>
      <circle cx="230" cy="20" r="3" fill="#ffaa00"/>
      <circle cx="244" cy="20" r="3" fill="#22aa22"/>
    </g>
    <g transform="translate(20,160)">
      <rect width="260" height="40" rx="6" fill="#1a1a2a"/>
      <rect x="6" y="6" width="6" height="28" rx="2" fill="#cc0000"/>
      <rect x="20" y="14" width="140" height="4" rx="2" fill="rgba(255,255,255,0.2)"/>
      <rect x="20" y="22" width="170" height="4" rx="2" fill="rgba(255,255,255,0.12)"/>
      <circle cx="230" cy="20" r="3" fill="#22aa22"/>
      <circle cx="244" cy="20" r="3" fill="#22aa22"/>
    </g>
    <g transform="translate(20,210)">
      <rect width="260" height="40" rx="6" fill="#1a1a2a"/>
      <rect x="6" y="6" width="6" height="28" rx="2" fill="#cc0000"/>
      <rect x="20" y="14" width="200" height="4" rx="2" fill="rgba(255,255,255,0.2)"/>
      <rect x="20" y="22" width="80" height="4" rx="2" fill="rgba(255,255,255,0.12)"/>
      <circle cx="230" cy="20" r="3" fill="#22aa22"/>
      <circle cx="244" cy="20" r="3" fill="#22aa22"/>
    </g>
    <g transform="translate(20,260)">
      <rect width="260" height="40" rx="6" fill="#1a1a2a"/>
      <rect x="6" y="6" width="6" height="28" rx="2" fill="#cc0000"/>
      <rect x="20" y="14" width="160" height="4" rx="2" fill="rgba(255,255,255,0.2)"/>
      <rect x="20" y="22" width="120" height="4" rx="2" fill="rgba(255,255,255,0.12)"/>
      <circle cx="230" cy="20" r="3" fill="#22aa22"/>
      <circle cx="244" cy="20" r="3" fill="#22aa22"/>
    </g>
  </g>

  <g stroke="rgba(204,0,0,0.8)" stroke-width="2" fill="none" stroke-dasharray="6,4" opacity="0.8">
    <path d="M120,200 Q60,300 120,400"/>
    <path d="M480,200 Q540,300 480,400"/>
    <path d="M300,120 Q200,60 100,80"/>
    <path d="M300,120 Q400,60 500,80"/>
  </g>

  <g fill="#cc0000">
    <circle cx="100" cy="80" r="6"/>
    <circle cx="500" cy="80" r="6"/>
    <circle cx="60" cy="300" r="6"/>
    <circle cx="540" cy="300" r="6"/>
  </g>

  <text x="300" y="510" text-anchor="middle" font-family="Arial,sans-serif" font-size="18" font-weight="bold" fill="rgba(255,255,255,0.85)">Bio Cloud Platform</text>
  <text x="300" y="535" text-anchor="middle" font-family="Arial,sans-serif" font-size="12" fill="rgba(255,255,255,0.5)">50 Dedicated + 24 Shared Servers</text>
</svg>
