<svg xmlns="http://www.w3.org/2000/svg" viewBox="0 0 600 600" preserveAspectRatio="xMidYMid slice">
  <defs>
    <linearGradient id="labBg" x1="0" y1="0" x2="1" y2="1">
      <stop offset="0%" stop-color="#fff0f0"/>
      <stop offset="100%" stop-color="#ffd8d8"/>
    </linearGradient>
    <linearGradient id="liq" x1="0" y1="0" x2="0" y2="1">
      <stop offset="0%" stop-color="#ff6b6b"/>
      <stop offset="100%" stop-color="#990000"/>
    </linearGradient>
    <linearGradient id="liq2" x1="0" y1="0" x2="0" y2="1">
      <stop offset="0%" stop-color="#ffb380"/>
      <stop offset="100%" stop-color="#cc4400"/>
    </linearGradient>
    <linearGradient id="liq3" x1="0" y1="0" x2="0" y2="1">
      <stop offset="0%" stop-color="#80b3ff"/>
      <stop offset="100%" stop-color="#0044aa"/>
    </linearGradient>
    <filter id="labShadow">
      <feDropShadow dx="0" dy="4" stdDeviation="6" flood-color="rgba(0,0,0,0.15)"/>
    </filter>
  </defs>

  <rect width="600" height="600" fill="url(#labBg)"/>
  <ellipse cx="300" cy="520" rx="260" ry="36" fill="rgba(0,0,0,0.08)"/>

  <g filter="url(#labShadow)">
    <rect x="80" y="160" width="440" height="280" rx="8" fill="#fafafa" stroke="#e0e0e0"/>
    <rect x="80" y="160" width="440" height="30" rx="8" fill="#cc0000"/>
    <rect x="80" y="186" width="440" height="6" fill="#990000"/>
    <text x="300" y="180" text-anchor="middle" font-family="Arial,sans-serif" font-size="14" font-weight="bold" fill="#fff">TONGYUAN LAB</text>
    <line x1="120" y1="220" x2="480" y2="220" stroke="#e8e8e8"/>
    <line x1="120" y1="260" x2="480" y2="260" stroke="#e8e8e8"/>
    <line x1="120" y1="300" x2="480" y2="300" stroke="#e8e8e8"/>
    <line x1="120" y1="340" x2="480" y2="340" stroke="#e8e8e8"/>
    <line x1="120" y1="380" x2="480" y2="380" stroke="#e8e8e8"/>
  </g>

  <g filter="url(#labShadow)">
    <path d="M150,200 L150,320 Q150,360 180,360 Q210,360 210,320 L210,200 Z" fill="#fff" stroke="#cccccc" stroke-width="2"/>
    <path d="M150,280 L150,320 Q150,360 180,360 Q210,360 210,320 L210,280 Z" fill="url(#liq)" opacity="0.85"/>
    <ellipse cx="180" cy="280" rx="30" ry="3" fill="#cc0000" opacity="0.4"/>
    <rect x="145" y="190" width="70" height="12" rx="3" fill="#cccccc"/>
    <line x1="160" y1="220" x2="175" y2="220" stroke="#888888" stroke-width="1.5"/>
    <line x1="160" y1="240" x2="175" y2="240" stroke="#888888" stroke-width="1.5"/>
    <line x1="160" y1="260" x2="175" y2="260" stroke="#888888" stroke-width="1.5"/>
  </g>

  <g filter="url(#labShadow)">
    <path d="M260,210 L260,320 Q260,360 290,360 Q320,360 320,320 L320,210 Z" fill="#fff" stroke="#cccccc" stroke-width="2"/>
    <path d="M260,260 L260,320 Q260,360 290,360 Q320,360 320,320 L320,260 Z" fill="url(#liq2)" opacity="0.85"/>
    <ellipse cx="290" cy="260" rx="30" ry="3" fill="#cc4400" opacity="0.4"/>
    <rect x="255" y="200" width="70" height="12" rx="3" fill="#cccccc"/>
  </g>

  <g filter="url(#labShadow)">
    <path d="M370,220 L370,320 Q370,360 400,360 Q430,360 430,320 L430,220 Z" fill="#fff" stroke="#cccccc" stroke-width="2"/>
    <path d="M370,290 L370,320 Q370,360 400,360 Q430,360 430,320 L430,290 Z" fill="url(#liq3)" opacity="0.85"/>
    <ellipse cx="400" cy="290" rx="30" ry="3" fill="#0044aa" opacity="0.4"/>
    <rect x="365" y="210" width="70" height="12" rx="3" fill="#cccccc"/>
  </g>

  <g opacity="0.35" stroke="#cc0000" stroke-width="2.5" fill="none" stroke-linecap="round">
    <path d="M450,60 C510,120 510,160 450,220"/>
    <path d="M510,60 C450,120 450,160 510,220" opacity="0.6"/>
    <line x1="460" y1="80" x2="500" y2="80"/>
    <line x1="460" y1="120" x2="500" y2="120"/>
    <line x1="460" y1="160" x2="500" y2="160"/>
    <line x1="460" y1="200" x2="500" y2="200"/>
  </g>

  <g opacity="0.3" stroke="#cc0000" stroke-width="2" fill="none" stroke-linecap="round">
    <path d="M70,400 C130,460 130,500 70,560"/>
    <path d="M130,400 C70,460 70,500 130,560" opacity="0.6"/>
  </g>

  <g transform="translate(70,470)">
    <rect x="0" y="0" width="460" height="56" rx="8" fill="#fff" stroke="#e8e8e8" filter="url(#labShadow)"/>
    <text x="20" y="24" font-family="Arial,sans-serif" font-size="13" font-weight="bold" fill="#1a1a1a">Sequencing Quality</text>
    <text x="20" y="42" font-family="Arial,sans-serif" font-size="11" fill="#666">Q30: 96.4% &#183; Coverage: 30X &#183; Duplication: 4.1%</text>
    <rect x="320" y="22" width="120" height="18" rx="9" fill="#f5f5f5"/>
    <rect x="320" y="22" width="100" height="18" rx="9" fill="url(#liq)"/>
    <text x="380" y="36" text-anchor="middle" font-family="Arial,sans-serif" font-size="11" font-weight="bold" fill="#fff">83%</text>
  </g>
</svg>
