<svg xmlns="http://www.w3.org/2000/svg" viewBox="0 0 1920 720" preserveAspectRatio="xMidYMid slice">
  <defs>
    <linearGradient id="hbg" x1="0" y1="0" x2="1" y2="1">
      <stop offset="0%" stop-color="#1a0608"/>
      <stop offset="55%" stop-color="#3a0a10"/>
      <stop offset="100%" stop-color="#cc0000"/>
    </linearGradient>
    <linearGradient id="grid" x1="0" y1="0" x2="0" y2="1">
      <stop offset="0%" stop-color="rgba(255,255,255,0.10)"/>
      <stop offset="100%" stop-color="rgba(255,255,255,0)"/>
    </linearGradient>
    <radialGradient id="glow" cx="0.78" cy="0.4" r="0.6">
      <stop offset="0%" stop-color="rgba(255,140,140,0.45)"/>
      <stop offset="100%" stop-color="rgba(255,140,140,0)"/>
    </radialGradient>
    <filter id="soft" x="-20%" y="-20%" width="140%" height="140%">
      <feGaussianBlur stdDeviation="6"/>
    </filter>
  </defs>

  <rect width="1920" height="720" fill="url(#hbg)"/>
  <rect width="1920" height="720" fill="url(#glow)"/>

  <g stroke="rgba(255,255,255,0.06)" stroke-width="1" fill="none">
    <path d="M0,120 L1920,120 M0,240 L1920,240 M0,360 L1920,360 M0,480 L1920,480 M0,600 L1920,600"/>
    <path d="M240,0 L240,720 M480,0 L480,720 M720,0 L720,720 M960,0 L960,720 M1200,0 L1200,720 M1440,0 L1440,720 M1680,0 L1680,720"/>
  </g>

  <g opacity="0.85" stroke="rgba(255,200,200,0.55)" stroke-width="2" fill="none" stroke-linecap="round">
    <path d="M180,80 C320,200 320,320 180,440 C320,560 320,680 180,800"/>
    <path d="M340,80 C200,200 200,320 340,440 C200,560 200,680 340,800" opacity="0.55"/>
    <line x1="210" y1="130" x2="310" y2="130"/>
    <line x1="220" y1="200" x2="300" y2="200"/>
    <line x1="210" y1="270" x2="310" y2="270"/>
    <line x1="220" y1="340" x2="300" y2="340"/>
    <line x1="210" y1="410" x2="310" y2="410"/>
    <line x1="220" y1="480" x2="300" y2="480"/>
    <line x1="210" y1="550" x2="310" y2="550"/>
    <line x1="220" y1="620" x2="300" y2="620"/>
  </g>

  <g opacity="0.5" stroke="rgba(255,200,200,0.4)" stroke-width="1.5" fill="none" stroke-linecap="round">
    <path d="M1680,40 C1820,180 1820,320 1680,460 C1820,600 1820,740 1680,880"/>
    <path d="M1820,40 C1680,180 1680,320 1820,460 C1680,600 1680,740 1820,880" opacity="0.5"/>
  </g>

  <g fill="rgba(255,255,255,0.6)">
    <circle cx="1080" cy="180" r="3"/>
    <circle cx="1240" cy="280" r="2"/>
    <circle cx="1380" cy="160" r="2.5"/>
    <circle cx="1520" cy="320" r="3"/>
    <circle cx="1180" cy="420" r="2"/>
    <circle cx="1340" cy="540" r="2.5"/>
    <circle cx="980" cy="320" r="2"/>
    <circle cx="900" cy="560" r="2"/>
  </g>

  <g stroke="rgba(255,255,255,0.25)" stroke-width="1.2" fill="none">
    <path d="M1080,180 L1240,280 L1380,160 L1520,320 L1340,540 L1180,420 L1080,180"/>
    <path d="M980,320 L1180,420 M900,560 L1340,540"/>
  </g>

  <g filter="url(#soft)" opacity="0.4">
    <circle cx="1500" cy="220" r="160" fill="#ff6b6b"/>
    <circle cx="380" cy="540" r="200" fill="#660000"/>
  </g>
</svg>
