<svg xmlns="http://www.w3.org/2000/svg" viewBox="0 0 600 450" preserveAspectRatio="xMidYMid slice">
  <defs>
    <linearGradient id="bg" x1="0" y1="0" x2="1" y2="1">
      <stop offset="0%" stop-color="#1f1f2f"/>
      <stop offset="100%" stop-color="#0c0c18"/>
    </linearGradient>
    <linearGradient id="screen" x1="0" y1="0" x2="0" y2="1">
      <stop offset="0%" stop-color="#27273a"/>
      <stop offset="100%" stop-color="#11111d"/>
    </linearGradient>
  </defs>

  <rect width="600" height="450" fill="url(#bg)"/>

  <g transform="translate(70,58)">
    <rect x="0" y="0" width="460" height="300" rx="14" fill="#1a1a28" stroke="#4a4a60" stroke-width="2"/>
    <rect x="14" y="14" width="432" height="246" rx="8" fill="url(#screen)"/>

    <rect x="46" y="44" width="290" height="165" rx="8" fill="#06060d" stroke="#cc0000" stroke-width="1.5"/>
    <circle cx="192" cy="127" r="42" fill="#cc0000"/>
    <polygon points="178,104 178,150 216,127" fill="#ffffff"/>

    <rect x="46" y="220" width="290" height="7" rx="3.5" fill="#38384a"/>
    <rect x="46" y="220" width="185" height="7" rx="3.5" fill="#cc0000"/>
    <circle cx="231" cy="223.5" r="7" fill="#cc0000"/>

    <g transform="translate(350,44)">
      <rect x="0" y="0" width="82" height="185" rx="8" fill="#232338" stroke="#3a3a52" stroke-width="1"/>
      <text x="41" y="18" text-anchor="middle" font-family="Arial, sans-serif" font-size="10" fill="#b2b2c5">章节</text>
      <rect x="7" y="28" width="68" height="20" rx="4" fill="#cc0000"/>
      <text x="41" y="42" text-anchor="middle" font-family="Arial, sans-serif" font-size="10" fill="#fff">01 入门</text>
      <rect x="7" y="54" width="68" height="20" rx="4" fill="#323249"/>
      <text x="41" y="68" text-anchor="middle" font-family="Arial, sans-serif" font-size="10" fill="#d8d8e6">02 流程</text>
      <rect x="7" y="80" width="68" height="20" rx="4" fill="#323249"/>
      <text x="41" y="94" text-anchor="middle" font-family="Arial, sans-serif" font-size="10" fill="#d8d8e6">03 实战</text>
      <rect x="7" y="106" width="68" height="20" rx="4" fill="#323249"/>
      <text x="41" y="120" text-anchor="middle" font-family="Arial, sans-serif" font-size="10" fill="#d8d8e6">04 进阶</text>
      <rect x="7" y="132" width="68" height="20" rx="4" fill="#323249"/>
      <text x="41" y="146" text-anchor="middle" font-family="Arial, sans-serif" font-size="10" fill="#d8d8e6">05 AI</text>
    </g>

    <rect x="212" y="300" width="36" height="16" fill="#404058"/>
    <rect x="170" y="316" width="120" height="7" rx="3.5" fill="#5a5a72"/>
  </g>

  <g opacity="0.85" font-family="Arial, sans-serif">
    <text x="24" y="34" fill="#ff8080" font-size="15" font-weight="700">1042 集高清视频课程</text>
    <text x="24" y="430" fill="#85ffd5" font-size="13">Bioinformatics Learning Platform</text>
    <rect x="438" y="392" width="138" height="36" rx="18" fill="#cc0000"/>
    <text x="507" y="415" text-anchor="middle" fill="#ffffff" font-size="15" font-weight="700">VIP COURSE</text>
  </g>
</svg>
